<?xml version="1.0" encoding="utf-8"?>
<!-- Generator: Adobe Illustrator 15.0.2, SVG Export Plug-In . SVG Version: 6.00 Build 0)  -->
<!DOCTYPE svg PUBLIC "-//W3C//DTD SVG 1.1//EN" "http://www.w3.org/Graphics/SVG/1.1/DTD/svg11.dtd">
<svg version="1.1" id="Ebene_1" xmlns="http://www.w3.org/2000/svg" xmlns:xlink="http://www.w3.org/1999/xlink" x="0px" y="0px"
	 width="512px" height="512px" viewBox="0 0 512 512" enable-background="new 0 0 512 512" xml:space="preserve">
<path d="M160,192h64v64h-64V192z M256,192h64v64h-64V192z M352,192h64v64h-64V192z M64,384h64v64H64V384z M160,384h64v64h-64V384z
	 M256,384h64v64h-64V384z M160,288h64v64h-64V288z M256,288h64v64h-64V288z M352,288h64v64h-64V288z M64,288h64v64H64V288z M416,0
	v32h-64V0H128v32H64V0H0v512h480V0H416z M448,480H32V128h416V480z"/>
</svg>
