<?xml version="1.0" encoding="utf-8"?>
<!-- Generator: Adobe Illustrator 15.0.2, SVG Export Plug-In . SVG Version: 6.00 Build 0)  -->
<!DOCTYPE svg PUBLIC "-//W3C//DTD SVG 1.1//EN" "http://www.w3.org/Graphics/SVG/1.1/DTD/svg11.dtd">
<svg version="1.1" id="Ebene_1" xmlns="http://www.w3.org/2000/svg" xmlns:xlink="http://www.w3.org/1999/xlink" x="0px" y="0px"
	 width="512px" height="512px" viewBox="0 0 512 512" enable-background="new 0 0 512 512" xml:space="preserve">
<path d="M255.645,0C185.511,0,123.788,25.955,76.09,74.347c-49.086,49.8-75.735,114.324-75.735,181.661
	c0,68.027,25.939,131.146,75.041,180.249C124.49,485.351,188.312,512,255.645,512c67.333,0,132.56-26.649,183.058-76.445
	c47.697-46.994,72.941-109.412,72.941-179.547c0-69.439-25.244-132.563-73.644-180.959C388.908,25.955,325.779,0,255.645,0z
	 M256.347,46.293c57.512,0,108.71,21.742,148.694,61.72c39.271,39.28,60.311,91.178,60.311,147.995
	c0,57.512-20.338,108.001-59.608,146.588c-41.385,40.676-94.685,62.417-149.395,62.417c-55.404,0-107.314-21.741-147.289-61.716
	c-39.974-39.98-62.426-92.586-62.426-147.289c0-55.413,22.452-108.013,62.426-148.697C148.338,67.337,198.836,46.293,256.347,46.293
	z M253.042,213.47c-14.453-26.373-39.131-36.865-67.768-36.865c-41.686,0-74.867,29.489-74.867,79.403
	c0,50.76,31.193,79.396,76.287,79.396c28.922,0,53.599-15.881,67.207-39.981l-31.762-16.165
	c-7.092,17.018-17.868,22.113-31.477,22.113c-23.533,0-34.311-19.564-34.311-45.362c0-25.813,9.073-45.378,34.311-45.378
	c6.808,0,20.416,3.692,28.361,20.701L253.042,213.47z M400.725,213.47c-14.461-26.373-39.129-36.865-67.766-36.865
	c-41.688,0-74.867,29.489-74.867,79.403c0,50.76,31.193,79.396,76.287,79.396c28.92,0,53.59-15.881,67.199-39.981l-31.762-16.165
	c-7.084,17.018-17.861,22.113-31.479,22.113c-23.524,0-34.309-19.564-34.309-45.362c0-25.813,9.08-45.378,34.309-45.378
	c6.81,0,20.418,3.692,28.369,20.701L400.725,213.47z"/>
</svg>
