<?xml version="1.0" encoding="utf-8"?>
<!-- Generator: Adobe Illustrator 15.0.2, SVG Export Plug-In . SVG Version: 6.00 Build 0)  -->
<!DOCTYPE svg PUBLIC "-//W3C//DTD SVG 1.1//EN" "http://www.w3.org/Graphics/SVG/1.1/DTD/svg11.dtd">
<svg version="1.1" id="Ebene_1" xmlns="http://www.w3.org/2000/svg" xmlns:xlink="http://www.w3.org/1999/xlink" x="0px" y="0px"
	 width="512px" height="512px" viewBox="0 0 512 512" enable-background="new 0 0 512 512" xml:space="preserve">
<path d="M400,192H288V64h-64v128H112l144,128L400,192z M371.549,266.316l-16.805,14.787C410.614,292.295,448,312.691,448,336
	c0,35.348-85.961,64-192,64S64,371.348,64,336c0-23.309,37.386-43.705,93.255-54.896l-16.804-14.787C57.122,282.15,0,314.572,0,352
	c0,53.02,114.615,96,256,96s256-42.98,256-96C512,314.572,454.879,282.15,371.549,266.316z"/>
</svg>
