<?xml version="1.0" encoding="utf-8"?>
<!-- Generator: Adobe Illustrator 15.0.2, SVG Export Plug-In . SVG Version: 6.00 Build 0)  -->
<!DOCTYPE svg PUBLIC "-//W3C//DTD SVG 1.1//EN" "http://www.w3.org/Graphics/SVG/1.1/DTD/svg11.dtd">
<svg version="1.1" id="Ebene_1" xmlns="http://www.w3.org/2000/svg" xmlns:xlink="http://www.w3.org/1999/xlink" x="0px" y="0px"
	 width="512px" height="512px" viewBox="0 0 512 512" enable-background="new 0 0 512 512" xml:space="preserve">
<path d="M426.67,0H85.343C38.405,0,0,38.406,0,85.344v341.314C0,473.625,38.406,512,85.344,512H426.67
	c46.938,0,85.33-38.374,85.33-85.342V85.344C512,38.406,473.608,0,426.67,0z M139.472,415.624
	c-23.985,0-43.472-19.347-43.472-43.313c0-23.843,19.486-43.406,43.472-43.406c24.079,0,43.53,19.563,43.53,43.406
	C183.001,396.277,163.55,415.624,139.472,415.624z M248.734,415.998c0-40.905-15.904-79.409-44.73-108.223
	c-28.857-28.875-67.188-44.812-107.952-44.812V200.37c118.826,0,215.563,96.721,215.563,215.627L248.734,415.998L248.734,415.998z
	 M359.814,415.998c0-145.531-118.33-263.97-263.688-263.97V89.404c180.001,0,326.473,146.562,326.473,326.596L359.814,415.998
	L359.814,415.998z"/>
</svg>
