<svg xmlns="http://www.w3.org/2000/svg" width="512" height="512" viewBox="0 0 512 512"><path fill-rule="evenodd" clip-rule="evenodd" d="M492.2 19.922c-.927 1.695-4.399 1.104-2.598 4 1.288 2.07 3.666 3.369 5.599 4.729 4.138 2.917 4.81 6.613 6.309 11.173 1.562 4.747-.31 8.284 1.589 13.665.198.563 7.23 5.237 2.741 5.986-.992-.379-1.266-1.106-.818-2.183-7.684 2.594 1.196 5.014 1.364 5.183.231 5.685.256 10.52.272 16.094.012 7.124-.685 13.654 0 20.731.325 3.381-.683 6.712-1.337 9.983-1.014 5.064.797 9.571.026 14.483-.644 4.104 1.178 7.773.764 11.813-.33 3.288-1.618 6.761-1.909 10.093-.417 4.82-1.807 9.776-2.182 14.456-.602 7.475.571 16.452.977 24.019.472 8.793-2.279 16.706-2.361 25.658-.104 11.227-2.184 24.208-.798 34.611-3.071 5.907-.275 14.604.025 20.827.438 9.052-2.628 15.981-3.845 24.455-1.012 7.035 1.289 16.19 1.95 23.38.676 7.356 1.261 14.773 1.05 22.172-.536 19.296.501 38.597.499 57.891-.002 7.14-2.669 13.612-2.407 20.942.289 8.029 1.825 15.91 2.02 23.968.117 4.836 3.084 21.859-.277 25.258-1.789 1.81-1.223 5.235-.106 7.238-.588 1.866-.951 3.776-1.09 5.729-1.235 1.915-2.6 3.733-4.093 5.455-2.46 4.608-4.294 12.71-10.911 12.548-4.464 5.686-11.831 8.037-18.218 10.774-7.838 3.358-15.073-.485-22.607.926-7.567 1.418-17.72.382-25.458.028-11.029-.498-22.921-2.098-34.369-1.091-13.013 1.15-24.062-4.78-37.007-2.876-6.407.942-12.458-.437-18.64-.396-7.948.047-15.643.033-23.73.818-6.023.58-12.386 2.694-18.55 2.182-7.347-.61-14.461-4.395-22.178-3.021-7.058 1.255-15.039.999-22.281 1.375-3.404.177-5.781.967-8.988 1.794-3.417.882-4.342-2.134-7.384-2.329-4.266-.275-13.764-1.867-17.629.105-7.369 3.762-17.144-.777-24.651-.924-11.988-.241-26.333.255-38.188 2.182-6.498 1.055-13.022-.792-19.367-1.363-6.566-.589-15.47.549-22.098 1.447-6.837.926-14.746.509-21.819 1.007-5.082.367-9.906 1.253-15.275 1.363-3.625.076-17.846-2.49-19.36-5.732-1.988-4.257-14.45-3.047-18.283-8.724-5.754-8.53-9.525-17.502-12.002-27.278-3.327-13.14.55-28.524 0-41.733-.228-5.537 1.863-10.936 2.182-16.366.409-6.912-.985-13.582-1.637-20.46-1.412-14.914-3.432-29.26-2.616-44.3.799-14.729 2.683-29.023 2.07-43.805-.53-12.947.261-24.962.818-37.916 1.222-28.219-1.609-56.789-2.728-85.107-.535-13.867 2.55-30.166-1.445-43.754-.723-2.458-1.936-2.349-3.771-3.717-2.713-2.024.688-4.597.852-6.811.566-7.551-3.791-15.367-2.182-23.459 1.98-9.952-1.774-20.139-.544-30.824 1.345-11.741 2.315-26.302 8.358-36.712 2.478-4.269 5.361-6.913 9.165-9.986 6.73-5.44 13.32-3.711 20.221-8.163 5.393-3.479 21.896 3.707 24.995-2.967 12.526-5.397 26.298-1.285 39.006.545 4.769.688 11.77 1.784 16.513.777 2.464-.522 9.492-.231 12.021.263 4.646.907 11.204 1.063 15.986.836 6.046-.287 11.935 2.625 17.834 2.313 6.547-.345 13.014-1.382 19.479-1.734 6.438-.351 13.751 1.503 19.967-.03 11.11-2.741 24.488.135 35.769 1.292 6.967.714 13.944 1.323 20.914 2.011 7.085.702 13.58-1.489 20.457-1.09 5.022.288 8.482.078 13.639-.273 7.002-.477 13.237 1.821 20.212.746 13.2-2.035 26.618-.213 39.617-1.364 11.428-1.012 23.028 1.896 34.55.892 11.499-1.009 22.525-1.194 33.827-2.183 11.727-1.029 22.421-2.957 34.134-1.749 4.896.505 9.08 1.897 14.146 2.294 4.4.344 14.309 2.865 15.82 7.91-.859 1.573-.968-3.232 0 0zm-312.6 186.851c-.408-6.883.908-14.17 1.092-21.004.185-7.176.403-14.15.272-21.276-.101-5.541-1.414-17.364 1.248-22.17 1.387-2.504.769-5.628.662-8.381-.19-4.958.356-7.442 1.637-12.275 2.926-11.041 7.153-22.279 13.777-31.832 8.003-11.542 23.92-15.705 36.034-21.529 10.631-5.112 20.761.82 17.837-15.651-1.137-6.417-4.106-11.568-6.001-17.73-1.942-6.336-5.077-5.191-11.729-5.729-14.239-1.15-28.091.962-42.536-.304-6.626-.582-10.609 2.807-17.475.032-7.897.734-14.68-.727-22.906-.456-6.273.206-13.063 1.773-19.374 1.274-4.114-.325-6.599-2.688-11.026-2.017-3.268.495-6.286 1.546-9.264-.384-3.798-2.462-8.709 1.519-13.036-.854-5.256-2.881-18.742-1.731-24.472-.568-11.634 2.361-25.735 1.499-34.945 10.369-6.562 6.323-15.781 17.803-12.514 27.653 1.065 3.21-1.727 15.054-3.225 18.003-2.077 4.087.329 16.933.736 21.719.562 6.576-2.908 12.28-.965 18.43 2.277 7.206 3.157 16.125 3.965 23.578 1.487 13.684-.891 26.396-1.052 40.017-.056 4.701.585 11.81 6.131 7.231 6.205-5.123 11.413 6.183 12.379 10.034 4.57 18.243 17.944 30.74 37.304 30.923 13.169.125 10.6-13.488-1.297-12.647-6.948-2.788-19.199-5.718-23.186-12.82-8.083-14.386-8.798-41.381 12.816-42.931 4.434-.318 7.481-3.351 12.093-3.397 5.553-.056 10.962.41 16.528.161 8.817-.393 20.504.898 29.211 2.522 13.604 2.53 37.257 19.787 28.114 36.314-1.765 3.191-1.9 6.968-5.089 9.247-4.303 3.075-8.657 3.762-12.771 7.153-8.171 6.734-24.046-.647-32.076 6.75.804 3.159-2.796 8.391 1.473 10.069 4.797 1.886 9.752-.461 14.348-1.067 8.766-1.159 16.643-.111 24.518-4.248 5.824-3.06 17.512-7.249 20.491-14.029 1.059-2.414 2.461-9.974 7.356-6.09 4.031 3.203 5.301 4.308 4.917-2.09zm281.232-178.122c-5.135-1.718-7.287-2.271-12.762-2.478-4.613-.174-13.282 3.677-17.087.694-3.534-2.772-6.709 4.059-6.705 7.239.019 7.366 1.705 13.454.547 21.276-1.792 12.064.62 24.209 1.91 36.006 1.727 16.052-.842 33.413-.548 49.646 10.298 2.128 22.301-8.119 27.557-15.738 7.219-10.465 10.703-19.369 14.998-31.18 5.028-13.852 8.347-25.835 9.845-40.996.483-4.896 3.733-16.04-1.348-19.523-5.322-3.647-10.724-3.04-16.407-4.946zm-57.011-.546c-1.506.427-2.597 1.336-3.273 2.728-3.881-.394-6.628-.007-10.366.273-3.729.28-15.129-2.658-14.749 3.529.558 9.059-5.403 18.194-5.162 27.567.244 9.401.265 20.088 3.544 28.914 2.01 5.339 3.948 10.782 4.366 16.367.441 5.906 5.771 11.444 7.91 16.639 3.293 8.018 12.962 10.004 19.892 14.848 8.194 5.728 5.357-11.963 5.223-15.766-.26-7.336.015-14.966.254-22.268.452-13.872-2.199-27.657-1.908-41.461.094-5.014-2.394-31.785-5.731-31.37zm-34.642 97.927c-4.307-14.512-11.175-26.318-11.001-42.244.148-13.681-1.787-26.331-.183-39.862.498-4.168.738-14.771-5.349-15.09-5.068-.266-12.264.508-17.292 1.179-3.13.419-15.273.417-15.072 4.474.092 1.853 2.206 5.536 3.071 6.983 2.035 3.415 2.222 7.21 4.363 10.638 2.691 4.303 8.175 5.41 10.525 9.447 3.294 5.659 5.67 10.696 6.039 17.387.757 13.694-16.89 18.934-2.38 30.721 3.547 2.878 10.933 8.644 13.092 12.548 1.863 3.352 6.688 14.464-1.361 13.639-11.691-1.191-17.71-15.848-23.732-23.186-2.678-3.268-10.805-7.528-12.511-1.029-1.74 6.631 6.951 11.332 9.026 16.813 2.387 6.308 6.47 10.569 10.034 16.084 2.484 3.844-.963 11.3-5.653 7.667-4.125-3.194-7.868-3.582-10.717-8.712-3.095-5.589-6.35-11.491-10.093-16.639-6.465-8.891-18-7.637-24.277.817-4.177 5.645 3.209 11.492 3.99 16.908.312 2.16 1.464 4.911 1.193 7.097-.338 2.724-2.405 4.073-2.184 7.092-3.2 5.637-6.127 11.795-8.729 17.731-1.663 3.801-10.105 10.699-.545 10.365 6.421-.226 13.744-3.384 20.186-3 7.19.427 13.305 1.093 20.729.545 5.149-.381 16.277 1.398 13.286 8.913-2.923 7.343-4.016 8.272-12.467 7.726-6.402-.409-11.749-2.292-18.297-.246-7.899 2.469-9.668-2.582-9.799 8.975-.037 3.369-.139 13.214 4.325 13.58 6.828.559 15.856.698 22.632.311 3.568-.204 13.176.901 14.072 4.522 2.058 8.307-6.354 8.328-11.567 7.501-12.801-2.026-27.033 4.052-39.592.699-10.191-2.721-31.354 7.519-39.043-1.48-10.275-12.023 29.622-8.131 31.99-9.585 3.646-2.244 3.651-9.712 3-13.093-.723-3.779-1.308-6.046-1.198-10.034.176-6.405-4.18-3.608-8.326-3.042-4.062.556-4.982-1.699-8.479-1.927-2.163-.141-4.711 1.48-6.884 1.787-4.184.589-12.143-2.978-11.938-8.389.274-7.262 8.881-8.053 14.377-6.296 7.452 2.382 10.335.714 14.948-5.97 3.941-5.711 6.606-12.271 6.507-19.257-.108-7.702-5.381-13.174-6.645-20.521-1.077-6.31 1.918-12.552-4.989-15.629-5.688-2.535-5.045-8.668-7.813-13.154-2.745-4.448-.538-11.965-1.653-17.043-1.644-7.464-6.104-9.359-12.821-9.274-6.991.091-11.075 1.022-17.185 4.365-5.611 3.067-10.929 2.643-14.679 8.465-2.055 3.189-7.573 10.333-7.016 14.36.725 5.242-8.121 9.278-7.061 15.607.655 3.915-2.806 16.276 1.392 18.292 5.65 2.714 14.975 1.95 21.09 2.467 7.188.612 41.06-4.27 41.369 4.978.294 8.815-8.295 5.803-14.06 5.976-7.361.221-6.8 6.228-7.668 11.414-2.061 12.259-9.373 21.658-22.641 21.276-6.551-.19-12.923-1.212-19.713-1.097-6.103.104-6.017 5.214-5.655 10.371.557 7.946.041 14.39 8.184 16.366 5.712 1.389 13.354 1.849 19.167 1.12 4.56-.572 33.063-.223 19.243 9.601-7.048 5.01-10.566-3.204-12.498 7.828-1.217 6.951-3.808 13.546-11.11 15.326-5.821 1.418-12.068.496-17.805 2.131-8.196 2.335-3.443 14.336-4.091 20.186-.349 3.137-1.544 6.098-1.637 9.272 2.432 1.445 7.504.195 10.096.243 8.429.156 16.402.467 24.788-.3 7.153-.654 8.163 1.2 8.76 7.696-1.868 3.959-9.35.052-10.911 4.638-2.038 5.983 2.555 10.377-3.606 15.333-5.462 4.395-10.393 5.823-16.306 8.671-5.997 2.88-14.264-1.269-14.303 7.45-.03 6.688 3.044 13.705 1.906 20.187-1.194 6.797-2.192 16.488-1.299 23.322 1.13 8.649-.851 15.777-3.14 24.137-3.324 12.137-.9 20.516-10.714 30.194-3.997 3.946-9.144 7.928-14.184 10.365-9.73 4.713-4.282 8.188-8.526 16.454-2.407 4.687-6.151 8.289-8.444 12.717-2.306 4.452-7.961 5.232-10.812 9.259-3.934 5.559-9.784 4.174-14.071 8.852-4.725 5.155 2.336 9.119 7.321 7.742 9.853-2.722 23.085-1.655 33.168-1.286 10.444.372 21.163.666 32.024.492 7.24-.116 13.608.707 20.83.501 6.133-.174 11.983-.128 18.067-.447 7.458-.395 14.553.936 21.823-.725 6.931-1.584 14.856 3.242 22.017.716 7.274-2.568 32.338 7.601 23.264-7.357-3.002-4.936-10.07-6.566-13.45-12.044-3.964-6.423-10.336-10.842-13.573-18.054-3.499-7.795-5.331-15.595-7.581-23.79-1.594-5.802-2.638-14.989-5.766-20.033-2.382-3.827-9.273.71-13.14.533-6.87-.314-15.71-.495-21.504-4.353-11.187-7.451-9.425-20.938-7.637-32.46 2.545-16.484 15.971-18.117 30.103-23.695 7.362-2.906 5.022-12.107 5.903-18.312.524-3.688 1.922-6.47 1.091-10.365-.479-2.239-1.932-3.044-1.992-5.539-.124-5.166-9.953-2.448-11.278-8.49-1.703-7.767 17.869-3.681 21.181-3.43 8.934.679 68.691-1.623 55.372-18.003-6.377-7.848-26.435-2.395-35.461-1.364-5.13.587-15.259 1.643-20.071-.818-7.27-3.717-15.286 2.253-21.388-5.527-6.912-8.812 24.297-7.725 27.821-7.292 4.821.589 10.932.139 15.744-.48 6.407-.824 12.434 1.351 18.705-.038 2.907-.644 9.994-.078 11.608-2.916 2.241-3.94-5.919-3.863-7.86-5.092-10.572-6.685-23.785-2.624-34.761-3.48-10.822-.845-24.974 4.994-35.001-.152-3.125-1.604-2.916-8.4.648-9.257 4.047-.972 8.556-.187 12.641.14 10.492.834 19.923-2.067 30.005-2.728 5.925-.389 11.813.624 17.732.545 5.54-.074 8.952 1.924 14.455 3.273 10.506 2.581 20.366 9.238 23.667 20.209 1.099 3.651 3.83 7.289 7.703 8.432 8.961 2.65 7.112-6.011 7.093-12.273-.046-10.644 2.613-18.863 7.092-28.37 5.797-12.334 10.746-17.913 22.367-25.913 10.143-6.994 18.965-13.297 30.06-19.208 5.847-3.115 3.522-10.335 3.922-16.358.274-4.133.96-17.791-3.237-19.609-7.509-3.253-22.204-2.877-26.876-10.037-4.51-6.915-12.02-9.878-14.506-18.257zm-52.919-60.283c-4.743-8.157-5.314-18.358-9.273-26.732-5.209-11.003-14.262-8.005-25.199-7.948-6.133.032-12.668-.22-18.777.294-3.743.314 1.274 10.861 1.393 12.98.495 8.935 9.827 19.427 7.442 28.728-1.348 5.257.075 8.978-.46 14.26-.625 6.17 2.354 11.573 1.776 17.425 5.909 8.92 17.387.851 25.097-.546 3.261-.59 7.956-.61 10.993-1.841 4.349-1.762 6.944-5.483 11.1-7.161 4.747-1.91 6.968-9.898 6.981-14.387.011-3.349-.64-6.959-2.343-9.891-3.099-1.175-6.908-2.052-8.73-5.181zm189.307 1.909c.75-1.32-.48-2.71-1.638-3-.701 1.27-.19 3.38 1.638 3zm-18.003 24.55c-3.518 1.354-8.361 18.545-10.449 22.53-4.063 7.758-9.584 18.515-15.416 25.045-5.738 6.425-17.026 13.881-25.645 14.306-12.507.616-9.146 8.285-9.625 17.498-.449 8.632 3.468 12.106 10.942 13.365 8.408 1.41 18.977 7.788 23.188 15.547 5.346 9.902 10.591 19.311 12.229 30.664.661 4.579.281 11.39 3.327 14.867 2.558 2.919 4.166 11.759 7.356 13.117 1.649-2.569.421-15.947 0-19.094-.76-5.667-3.352-15.216.102-20.332 1.903-2.82.147-3.732-.646-6.401-1.447-4.857 1.667-6.52 2.182-10.638.82-6.631 1.506-14.288 1.364-21.004-.201-9.308-.309-19.067.153-28.326.44-8.829-.896-16.49 1.935-24.972 1.088-3.259-1.702-3.583-2.088-6.44-.404-2.978 1.702-9.595 2.672-12.574.708-2.177 1.708-17.158-1.581-17.158-.394.152.089 0 0 0zm-292.416 79.65c-.316 11.981 16.167 10.875 24.076 11.427 10.58.738 11.618-10.758 13.294-17.974 2.423-10.401-7.936-8.821-16.171-9.234-5.204-.262-11.172-1.147-16.289.233-2.479.668-4.823 12.259-4.91 15.548zm-129.022 16.093c-.804 7.376 3.203 14.869 10.092 16.095 9.043 7.135 18.016 9.31 29.575 8.407 6.973-.544 39.849-2.016 36.45-14.316-2.268-8.204-2.093-10.007-9.015-15.914-5.848-4.996-15.992-10.6-23.988-10.858-8.298-.268-16.793.824-25.111 1.583-6.942.639-17.105 6.738-18.003 15.003zm-38.189 19.368c3.132 12.695 1.889 27 1.091 40.098-.895 14.715-1.956 29.17-1.364 43.917.295 7.494.995 14.955.993 22.635-.002 6.875-.867 13.426-.722 20.323.313 14.91-1.68 29.072 1.639 43.512 2.875 12.479-.719 26.111 0 39.008.796 14.167-1.145 28.47-.466 43.107.605 13.035 9.257 28.734 24.197 26.45 6.115 3.115 13.999 1.339 20.566 1.794 3.217.223 7.14.78 9.985-1.249 5.027.321 10.274 2.144 15.275.546 4.05-1.29 8.723-6.786 12.275-9.274 5.288-3.715 10.852-7.28 16.093-10.91 4.912-3.403 6.583-10.191 11.184-14.185 3.88-3.373 3.315-13.296 2.728-17.458-1.803-12.795-6.04-20.478-14.185-30.005-4.995-5.846-7.989-6.95-14.708-10.388-11.032-5.644-5.801 7.416-9.19 13.227-6.199 10.629-12.956 22.84-25.201 28.006-4.277 1.805-8.083 5.571-12.256 7.92-7.366 4.146-12.229-4.125-6.715-9.637 3.085-3.085 10.42-7.854 14.333-9.762 6.153-3.002 8.319-6.234 11.982-12.254 5.429-8.922 12.265-28.422 2.242-36.658-8.516-6.998-16.148-12.278-21.852-22.148-6.057-10.48-6.957-22.772-6.556-34.229.101-2.882-.139-8.604.868-11.352 1.794-4.899 8.257-9.188 10.83-13.761 2.745-4.878 6.379-8.302 10.942-11.441 3.873-2.661 10.607-4.107 11.554-9.175 1.501-8.033.68-18.924-1.066-26.663-1.029-4.564-23.923-4.757-28.764-6.441-10.472-3.644-17.388-9.528-22.641-19.095-2.6-4.74-3.711-7.636-5.048-12.953-1.239-4.936-10.156-10.099-8.043-1.505zm408.344 283.685c11.492 1.381 20.91 6.339 32.187.546 10.791-5.52 17.188-17.934 14.381-29.713-2.561-10.745-2.597-19.997-1.286-30.843.753-6.26.728-13.463.905-19.848.105-3.812-2.727-6.675-3.087-10.43-.297-3.078 1.6-6.959-.274-9.819 4.602-9.831.299-24.882-1.084-34.958-.971-7.066.297-14.323-.551-21.508-.832-7.021-1.439-14.228-1.911-21.275-.834-12.67.421-27.112-4.091-39.28-2.074-5.596-5.14-10.898-6.002-16.912-.958-6.72-.441-12.535-2.727-19.094-3.624-10.436-8.038-18.761-15.549-27.005-3.89-4.265-8.456-6.651-14.303-7.748-5.049-.947-6.136 9.936-5.694 13.596 3.769 31.251-.629 63.161 2.288 94.229 1.606 17.114.253 34.875.253 52.06 0 9.36-.299 18.777.111 28.131.292 6.638-2.185 12.249-2.079 18.887.212 13.449 6.553 25.76 4.693 39.252-1.157 8.432-2.181 15.552-2.181 24.277 0 4.247-.257 8.5.04 12.744.433 6.163 1.273 4.157 5.961 4.711zm-33.277-276.32c-8.924-.978-19.419 13.556-24.823 19.093-1.584 1.624-5.003 2.528-5.729 4.911-.851 2.792.359 5.28-.889 8.182-2.948 6.858-2.259 15.447-2.384 22.641-.224 13.056-4.342 25.468-4.215 38.32.067 6.702 2.952 13.235 3.123 19.509.182 6.305-3.07 12.565-2.145 19.082.83 5.841-.226 11.151-.31 16.925-.073 5.086 1.374 14.077-1.691 18.252-3.783 5.155-4.389 16.715-4.404 23.034-.021 8.528.907 17.143-.104 25.644-.786 6.606-4.851 14.292-3.252 20.998 1.971 8.268.475 17.512.282 25.912-.307 13.451 2.896 7.903 12.022 12.351 4.477 2.182 13.104 2.111 18.15 2.561 6.392.562 12.221.009 18.518.38 8.147.481 4.913-12.464 6.05-17.943 1.455-7.014 1.614-14.605 1.073-21.718-.46-6.208 1.353-11.417 1.91-17.457 1.202-13-2.134-25.924-2.455-38.462-.156-6.368 2.46-12.396 2.06-19.132-.503-8.44 1.815-16.602 1.817-25.032.001-6.333-4.659-10.048-4.968-15.573-.295-5.31 1.829-11.247 1.908-16.64.221-13.678 1.481-27.144 2.153-40.896.756-15.471-1.047-31.221-.581-46.95.11-3.707.903-15-2.164-17.882-4.884-4.589-.96-5.204-8.952-.11-1.226-.134 2.165-1.38 0 0zm-244.135 202.672c10.666-7.066 16.719-20.252 17.678-32.375.434-5.48 3.018-12.437 1.754-17.744-1.868-7.845.846-16.04-1.482-23.931-1.012-3.43-.196-10.542 1.316-13.76 2.596-5.523-1.979-10.386-1.537-15.846.366-4.41.588-9.037 1.531-13.646.631-3.086.042-5.431-.368-8.456-.445-3.272 1.816-5.304 1.538-8.562-.431-5.035-2.191-10.815-1.839-15.743.4-5.604 1.729-10.756 1.321-16.331-.465-6.4 1.697-12.843 1.091-19.095-.231-2.432-.198-18.633-4.962-8.125-4.831 10.655-19.046 15.702-29.407 19.583-7.574 2.834-13.466.474-21.052 1.187-11.818 1.109-14.829 2.629-13.975 14.912.416 5.983-2.581 11.783-2.667 17.914-.091 6.458-.839 11.473.051 17.814 1.456 10.319 3.741 26.069-2.455 35.188-14.624 3.34-10.366-13.935-10.049-23.367.104-3.108 1.469-12.422-3.044-13.456-4.347-.997-11.425 7.996-13.929 11.189-4.221 5.382-3.875 13.464-2.982 19.906-2.848 3.424-2.406 14.029.874 16.926 5.01 4.424 6.295 10.738 10.31 16.08 4.138 5.506 11.608 11.471 17.552 15.034 9.827 5.893 21.298 9.893 31.002 16.335 5.667 3.766 9.264 9.278 11.433 15.578 1.862 5.41 5.428 17.331 12.297 12.791zm38.461-191.488c-5.122 1.502-3.798 10.345-1.862 13.688 2.88 4.974 15.866 3.598 18.503-.594 1.747-2.786 9.063-15.095.064-13.215-5.327 1.111-11.235-1.497-16.705.121zm126.296 78.286c-4.671 2.05-9.997.864-14.731 2.182-5.728 1.593-4.363 8.861-4.363 13.094 0 11.361 3.408 17.703 13.092 24.277 7.246 4.905 17.752 7.812 21.277 16.639 3.544 8.852 3.796 20.275-.346 29.05-4.188 8.873-16.971 13.727-26.245 11.395-5.634-1.416-9.026-6.158-13.873-.278-2.978 3.612-3.906 9.889-6.196 14.231-2.555 4.846-7.696 7.614-9.531 13.251-2.073 6.373-.352 10.291 1.796 16.28 2.922 8.149 11.033 20.134 17.299 26 5.953 5.582 12.872 12.626 20.413 15.918 9.04 3.946 22.652 5.11 22.3-6.996-.348-11.931-.557-23.908.11-35.717.775-13.702-.022-28.128 1.637-41.672 1.501-12.19 3.341-23.297 3.711-35.779.42-14.201 2.608-31.284.384-45.235-.937-5.806-1.622-10.146-1.381-16.308.136-3.463-1.244-9.492-4.083-11.78-9.089-7.329-13.583 8.084-21.27 11.448zm-110.475-12.821c-3.862-2.324-14.423-1.075-18.822-.545-6.635.798-3.284 13.42-1.909 16.911 5.659 14.377 32.41-9.334 20.731-16.366zm91.108 58.921c-8.367-5.55-8.743-9.409-10.093-19.368-.654-4.819-1.898-9.138-2.833-13.88-1.527-7.742-4.349-6.478-11.353-6.033-9.051.583-16.264-1.551-16.176 9.702.074 9.601 4.688 18.935-1.387 27.806-6.768 9.883-18.667 5.509-25.562 12.314-5.707 5.632-7.815 10.838-8.701 19.19-1.122 10.526 3.94 16.199 13.366 15.821 11.424-.454 16.748-4.927 17.537-16.694.314-4.692-.108-9.387 5.742-10.598 7.675-1.589 5.626 10.437 5.634 14.743.011 4.898.197 10.237 1.526 14.979 1.094 3.9-.433 9.934 2.198 13.23 4.591 5.753 10.368-10.821 11.005-13.206 1.449-5.403 2.044-26.309 6.262-28.205 14.345-6.449 7.862 9.214 14.134 13.272 6.089 3.94 14.006 9.113 21.256 5.044 8.712-4.89 4.958-16.036.033-22.156-3.61-4.488-7.388-6.876-12.626-9.149-3.924-1.704-6.24-4.344-9.962-6.812zm-213.857-271.412c0 8.447-.54 22.942-10.834 25.896-10.453 2.999-5.336-14.579-6.021-19.183-1.33-8.945.141-18.363.496-27.27.181-4.525-.561-11.893-3-15.8-3.536-5.665-7.48.484-8.103 4.088-1.393 8.066 7.294 62.365-4.998 61.728-9.032-.465-10.071-18.97-9.937-25.207.08-3.738-.932-29.761-8.282-16.861-4.869 8.546-1.322 20.125-.058 28.974 1.351 9.441 4.418 19.604 15.248 22.633 12.303 3.441 9.302 12.068 9.302 23.072 0 3.857-.614 16.265 7.638 12.669 2.759-1.202 2.207-8.882 2.576-11.475.645-4.527-3.65-22.724 2.103-23.709 5.982-1.025 7.071-.757 11.543-5.319 3.407-3.475 5.97-7.355 7.782-11.869 2.878-7.176 4.995-15.295 4.637-23.186-.131-2.875-1.532-10.161-4.637-11.457-7.415-3.091-5.455 8.674-5.455 12.276zm77.469 31.369c4.665-11.729 6.051-21.184 6.819-33.824.304-5.054 1.336-10.563-.545-15.275-2.162-5.411-8.42-2.815-9.274 1.909-2.17 11.996 2.299 24.005-1.637 35.734-1.507 4.488-3.092 4.97-7.208 7.563-6.524 4.11-6.468-6.092-6.636-9.404-.291-5.732-.181-11.488-.003-17.222.156-5.04-1.798-8.734-1.933-13.665-.134-4.915 3.326-28.485-8.201-25.496-6.032 1.564-.563 22.453-.771 26.879-.286 6.122 1.995 11.231 1.963 17.149-.024 4.552 2.361 16.747.693 20.469-4.345 9.707-15.71-9.055-16.912-11.729-4.034-8.984 3.967-25.673-4.092-32.188-11.146.732-7.904 19.479-7.092 27.004.358 3.318.935 10.435 2.675 13.285 1.025 1.679.629 3.365 1.417 4.991 1.191 2.465 3.789 3.016 4.637 5.881 2.827 9.553 17.853 6.287 19.008 12.332 1.223 6.401-3.348 23.406 4.022 26.315 12.486 4.928 6.757-15.725 6.691-22.03-.129-12.398 12.33-8.487 16.379-18.678zm-46.918 74.195c-4.805 3.137-13.892.279-19.474 1.229-2.174.663-4.142.35-5.902-.938-2.915-1.821-3.711.478-6.538.799-5.222.595-10.298-2.078-14.852 2.107-7.449 6.848 4.204 7.638 8.305 7.986 10.007.846 19.977 4.344 30.005 3.818 4.275-.223 10.565.398 13.989-2.821 7.244-6.811.825-10.688-5.533-12.18-3.981 2.598 2.022.474 0 0z"/></svg>