<svg viewBox="0 0 512 512" xmlns="http://www.w3.org/2000/svg" fill-rule="evenodd" clip-rule="evenodd"><path d="M256 0c-141.385 0-256 114.615-256 256s114.613 256 256 256c141.385 0 256-114.615 256-256s-114.615-256-256-256zm24.822 342.059c-23.26-1.807-33.021-13.328-51.252-24.404-10.03 52.588-22.282 103.008-58.57 129.343-11.202-79.484 16.447-139.182 29.285-202.557-21.892-36.853 2.635-111.017 48.81-92.737 56.813 22.474-49.2 137.004 21.966 151.308 74.31 14.934 104.644-128.929 58.571-175.712-66.579-67.553-193.799-1.54-178.155 95.178 3.807 23.646 28.236 30.819 9.762 63.451-42.61-9.446-55.325-43.051-53.688-87.856 2.634-73.337 65.892-124.682 129.343-131.783 80.242-8.982 155.553 29.454 165.953 104.938 11.706 85.195-36.224 177.465-122.025 170.831z"/></svg>