<?xml version="1.0" encoding="utf-8"?>
<!-- Generator: Adobe Illustrator 15.0.2, SVG Export Plug-In . SVG Version: 6.00 Build 0)  -->
<!DOCTYPE svg PUBLIC "-//W3C//DTD SVG 1.1//EN" "http://www.w3.org/Graphics/SVG/1.1/DTD/svg11.dtd">
<svg version="1.1" id="Ebene_1" xmlns="http://www.w3.org/2000/svg" xmlns:xlink="http://www.w3.org/1999/xlink" x="0px" y="0px"
	 width="512px" height="512px" viewBox="0 0 512 512" enable-background="new 0 0 512 512" xml:space="preserve">
<g>
	<path d="M298.907,388.533h-92.593c-4.111,0-7.713,1.554-10.8,4.634c-3.09,3.089-4.631,6.688-4.631,10.803v92.598
		c0,4.115,1.546,7.719,4.631,10.804c3.087,3.085,6.685,4.629,10.8,4.629h92.593c4.115,0,7.723-1.544,10.804-4.629
		c3.093-3.085,4.633-6.688,4.633-10.804V403.97c0-4.115-1.536-7.714-4.633-10.803C306.63,390.077,303.022,388.533,298.907,388.533z"
		/>
	<path d="M420.448,111.338c-10.543-19.43-24.173-35.819-40.895-49.198c-16.718-13.372-35.504-24.052-56.332-32.023
		c-20.832-7.968-41.536-11.956-62.116-11.956c-78.189,0-137.861,34.21-179.019,102.63c-2.055,3.341-2.765,6.941-2.122,10.801
		c0.645,3.854,2.638,7.071,5.981,9.642l63.275,48.231c3.344,2.053,6.56,3.082,9.647,3.082c4.631,0,8.616-2.061,11.961-6.177
		c18.517-23.145,32.279-37.935,41.281-44.368c11.062-7.457,24.947-11.184,41.667-11.184c15.688,0,29.512,4.116,41.476,12.341
		c11.959,8.231,17.934,17.749,17.934,28.552c0,12.083-3.209,21.862-9.643,29.322c-6.433,7.457-17.235,14.655-32.412,21.604
		c-20.057,9.001-38.456,22.956-55.167,41.862c-16.723,18.904-25.079,39.03-25.079,60.377v17.366c0,4.888,1.344,9.71,4.049,14.465
		c2.703,4.764,5.98,7.141,9.841,7.141h92.594c4.116,0,7.714-1.988,10.804-5.983c3.08-3.981,4.629-8.157,4.629-12.528
		c0-6.428,3.537-15.053,10.604-25.851c7.075-10.804,15.88-19.169,26.433-25.089c10.026-5.651,17.865-10.215,23.53-13.693
		c5.669-3.463,13.06-9.066,22.192-16.782c9.124-7.718,16.2-15.372,21.214-22.956c5.017-7.586,9.521-17.427,13.509-29.518
		c3.99-12.088,5.979-25.079,5.979-38.966C436.265,151.13,430.993,130.747,420.448,111.338z"/>
</g>
</svg>
