<?xml version="1.0" encoding="utf-8"?>
<!-- Generator: Adobe Illustrator 15.0.2, SVG Export Plug-In . SVG Version: 6.00 Build 0)  -->
<!DOCTYPE svg PUBLIC "-//W3C//DTD SVG 1.1//EN" "http://www.w3.org/Graphics/SVG/1.1/DTD/svg11.dtd">
<svg version="1.1" id="Ebene_1" xmlns="http://www.w3.org/2000/svg" xmlns:xlink="http://www.w3.org/1999/xlink" x="0px" y="0px"
	 width="512px" height="512px" viewBox="0 0 512 512" enable-background="new 0 0 512 512" xml:space="preserve">
<path d="M192,293.333c0,0,101.973-61.18,159.383-37.013c11.901-18.134,23.624-37.668,35.102-57.611
	C330.321,184.949,256,197.333,256,197.333s95.106-57.061,153.333-39.2c11.675-21.054,23.027-41.821,33.978-61.152
	C396.923,93.847,352,101.333,352,101.333s59.574-35.744,113.289-41.799C482.188,32.104,497.874,10.594,512,0C231.5,0,64,320,0,512
	h32l96-160c0,0,32,32,128,0c22.736-7.579,45.474-28.626,67.786-56.967C267.479,280.756,192,293.333,192,293.333z"/>
</svg>
