<?xml version="1.0" encoding="utf-8"?>
<!-- Generator: Adobe Illustrator 15.0.2, SVG Export Plug-In . SVG Version: 6.00 Build 0)  -->
<!DOCTYPE svg PUBLIC "-//W3C//DTD SVG 1.1//EN" "http://www.w3.org/Graphics/SVG/1.1/DTD/svg11.dtd">
<svg version="1.1" id="Ebene_1" xmlns="http://www.w3.org/2000/svg" xmlns:xlink="http://www.w3.org/1999/xlink" x="0px" y="0px"
	 width="512px" height="512px" viewBox="0 0 512 512" enable-background="new 0 0 512 512" xml:space="preserve">
<path d="M135.762,348.954H68.945c-4.024,0-7.031-1.807-8.732-4.556c-1.762-2.857-1.852-6.562,0-10.249l70.994-125.284
	c0.076-0.137,0.076-0.228,0-0.379l-45.178-78.207c-1.869-3.721-2.141-7.395-0.379-10.25c1.702-2.763,5.086-4.176,9.111-4.176h66.816
	c10.251,0,15.278,6.604,18.604,12.528c0,0,45.664,79.665,45.938,80.104c-2.705,4.768-72.133,127.561-72.133,127.561
	C150.57,342.21,145.756,348.954,135.762,348.954z M451.718,38.934L303.776,300.509c-0.089,0.139-0.089,0.308,0,0.44l94.2,172.104
	c1.868,3.703,1.913,7.474,0.136,10.327c-1.699,2.748-4.844,4.266-8.867,4.266h-66.742c-10.235,0-15.353-6.802-18.664-12.726
	c0,0-94.7-173.728-94.942-174.18c4.737-8.382,148.686-263.657,148.686-263.657c3.584-6.44,7.911-12.727,17.888-12.727h67.503
	c4.026,0,7.184,1.52,8.883,4.268C453.616,31.478,453.57,35.243,451.718,38.934z"/>
</svg>
