<svg xmlns="http://www.w3.org/2000/svg" width="512" height="512" viewBox="0 0 512 512"><defs><filter id="a"><feOffset result="offOut" in="SourceAlpha" dy="6"/><feGaussianBlur result="blurOut" in="offOut" stdDeviation="2"/><feBlend in="SourceGraphic" in2="blurOut"/></filter></defs><path fill="#B42B2C" filter="url(#a)" d="M505.022 52.93l-3.052 1.88c-.865 2.094 3.65 2.534 4.416 3.303.218 5.363.257 10.728.271 16.094.022 12.33-2.586 25.909-1.415 38.013 1.211 12.521.114 24.075-2.146 36.371-2.702 14.686 1.169 29.254-1.071 43.964-3.808 25.01.514 50.27-2.406 74.774-3.516 29.515-1.146 58.328-.628 88.371.491 28.5-2.191 56.133.726 84.517 1.152 11.226-.479 50.106-17.062 49.701-13.879 17.677-46.881 12.616-66.283 11.728-28.016-1.266-56.04-1.851-83.858-4.068-14.319-1.143-28.104.738-42.226 2.496-11.688 1.455-23.641-2.763-35.692-1.979-11.077.718-21.066.669-31.349.009-12.506-.807-23.994 2.2-36.299-.084-12.14-2.253-25.884-.825-38.058.601-12.407 1.452-24.15-1.381-36.505-.351-10.882.907-60.938 12.022-67.526-2.081-3.029-6.491-16.658-5.427-21.503-13.896-6.224-10.882-10.302-23.217-10.138-35.829.165-12.706.376-26.475 2.78-38.948 2.949-15.312-1.807-32.604-3.022-47.989-2.285-28.9.585-59.707 1.734-88.703 1.333-33.644-.721-66.723-2.046-100.322-.561-14.504 2.733-29.538-1.445-43.754-.728-2.471-5.172-3.211-4.792-5.89.855-6.049 1.791-9.469.391-16.165-4.578-21.88-4.407-59.633 7.11-79.473 5.688-9.801 14.177-12.491 24.262-15.76 8.546-2.771 20.675.412 28.042-3.272 13.763-6.882 26.068-3.7 41.083-1.539 11.148 1.609 22.438.798 33.682 1.71 57.131 4.639 114.948-.654 172.325 3.579 30.274 2.234 64.169.081 94.571-1.57 14.394-.781 78.244-13.055 84.307 7.191-.669 1.226-1.077-3.598 0 0-4.307 7.877 4.757 6.738 7.929 15.627-.002.001 5.402 21.431 4.893 21.744zm-325.422 149.481c-1.348-22.734 3.418-46.238 3.503-68.547.103-26.595 11.432-52.535 36.604-63.592 15.68-6.887 38.484-6.095 30.812-28.058-3.851-11.021-4.256-16.423-16.09-17.38-14.776-1.193-33.91-2.438-48.486.062-13.149 2.255-27.323-1.78-40.84-.258-7.232.814-27.003 2.392-33.255-1.66-4.434-2.874-22.461-2.852-27.932-2.554-12.244.666-28.752 1.745-39.542 7.817-8.49 4.778-17.69 16.287-18.155 26.308-.375 8.054 1.413 15.208-2.562 23.032-3.996 7.868 1.802 19.509.304 28.053-2.513 14.335 3.708 29.164 3.909 43.783.153 11.127-5.454 28.649-.564 39.004 1.608 3.405 12.126-2.953 16.482 7.155 4.07 9.446 5.923 18.184 14.168 25.248 6.176 5.292 24.69 14.272 31.78 6.089 6.129-7.073-30.006-17.506-33.793-26.394-3.237-7.599-4.589-16.639-2.585-24.739 3.247-13.121 12.771-12.076 23.108-16.466 17.337-7.363 53.308-2.298 68.619 8.945 21.734 15.961 12.097 45.379-15.042 47.844-8.321.756-21.747-2.84-23.757 7.402-2.421 12.338 21.658 5.041 28.624 4.353 9.638-.952 22.708-6.602 29.699-13.501 2.98-2.94 2.863-5.915 4.956-9.175 2.929-4.563 8.938 3.431 9.825 1.324l.21-4.095zm281.23-178.122c-9.731-3.256-16.587-.243-26.223-.658-13.463-.58-9.82 7.795-9.407 20.034 1.047 30.965.423 61.948.985 93.008 25.48 5.266 39.233-36.631 44.926-53.711 4.16-12.482 5.848-24.885 8.008-37.779 2.82-16.832-4.465-16.258-18.289-20.894-5.133-1.718 5.685 1.906 0 0zm-57.009-.546c-8.029 2.278-15.703 1.427-24.435 2.696-7.838 1.139-9.157 31.958-8.92 38.644.868 24.442 8.402 54.872 31.103 66.891 8.954 4.741 10.764 3.095 10.094-7.341-.896-13.974.395-27.941-.561-41.906-.204-2.984-1.602-59.691-7.281-58.984zm-34.642 97.927c-6.106-20.573-10.444-36.617-11.464-58.289-.866-18.428 8.35-40.958-16.771-38.391-5.491.561-14.734-.035-19.475 3.154-3.186 2.143 4.813 17.314 6.245 19.604 5.152 8.243 12.629 9.793 15.564 20.61 2.51 9.243-1.073 14.621-5.35 22.3-7.094 12.739 14.063 19.787 18.406 29.978 2.925 6.867 1.699 13.697-7.388 9.58-7.679-3.478-11.944-11.762-16.455-18.379-2.198-3.226-12.7-13.731-15.107-4.561-1.554 5.919 8.879 17.664 11.896 22.561 1.703 2.765 14.105 16.411 4.723 18.878-6.962 1.831-14.682-11.017-17.09-15.241-3.47-6.085-7.301-14.513-14.704-16.604-6.211-1.753-18.422 2.553-17.752 10.697.564 6.883 7.357 12.275 6.431 19.743-1.062 8.571-7.494 17.026-10.913 24.823-1.496 3.42-9.64 10.683-.545 10.365 11.503-.405 22.134-2.429 33.839-2.257 5.1.075 18.172-2.23 20.623 4.866 2.941 8.515-6.816 11.957-12.729 11.575-16.463-1.052-31.384-4.228-27.621 16.645 2.892 16.041 37.146-3.269 40.555 10.497 2.882 11.635-37.575 9.556-44.755 9.172-10.583-.565-38.184 6.049-45.447-2.452-7.332-8.58 12.693-8.918 16.748-9.046 15.301-.482 19.939-.577 17.331-18.571-2.646-18.254-19.482-2.947-31.591-10.222-20.346-12.225 20.41-13.234 21.768-14.623 16.553-16.929 4.532-33.767 2.788-52.892-.183-3.131-1.742-5.332-4.681-6.602-5.574-2.484-5.066-8.703-7.813-13.154-4.542-7.362 2.572-18.867-6.16-24.511-28.028-18.114-61.572 33.373-54.556 56.982 2.787 9.378 72.458-1.542 63.357 13.736-3.31 5.554-12.724-.068-17.446 3.134-4.872 3.302-3.991 14.872-6.555 19.912-8.154 16.025-43.908 5.6-44.991 15.946-2.257 21.556 10.677 23.056 29.19 22.317 4.972-.199 29.918.868 17.456 9.728-5.956 4.232-10.857-1.542-12.498 7.828-1.751 9.997-6.681 15.451-17.039 16.145-20.104 1.347-17.104 13.602-17.604 30.77 5.687 3.379 22.135.576 28.658.336 3.013-.112 10.306-1.922 13.063.773 2.04 1.992 3.545 7.246-.352 8.278-7.896 2.095-9.369 1.46-8.895 10.938.454 9.095-16.04 16.012-23.442 16.996-9.271 1.235-11.694 2.558-9.783 13.172 2.247 12.478-1.753 24.293-.127 36.744 2.676 20.485-5.452 50.181-23.009 61.803-14.745 9.762-13.619 27.933-29.253 38.123-3.621 2.359-19.493 11.162-19.18 15.631.579 8.264 24.262 2.305 28.847 2.388 26.025.472 52.056 1.868 78.09 1.256 20.613-.484 42-2.374 62.36.202 25.089 3.174 2.368-11.645-2.683-19.832-5.286-8.564-12.406-14.087-15.917-23.907-3.913-10.948-5.298-22.576-9.007-33.526-4.952-14.623-39.171 5.447-44.905-20.538-5.782-26.207 9.788-35.613 30.731-43.879 8.178-3.229 11.13-34.707 1.359-37.696-2.733-.836-12.715-5.773-5.511-8.857 5.83-2.496 13.062-.037 19.057.418 7.979.606 67.951-2.53 55.37-18.004-6.602-8.123-23.137-3.305-31.605-1.922-12.531 2.045-22.902-1.683-35.057-1.5-10.112.152-15.591-8.808-3.802-10.908 8.913-1.59 17.604-.383 26.521-.396 11.947-.016 26.187 1.168 37.82-1.835 11.244-2.902-18.532-10.934-22.009-10.892-13.869.168-27.615 2.186-41.406 2.433-5.073.091-15.903-.951-12.925-8.972 2.198-5.917 18.293-1.971 22.784-2.266 23.253-1.524 68.728-10.078 78.162 21.28 4.823 16.027 14.83 7.7 14.796-3.841-.062-14.382 5.808-29.924 14.67-41.229 8.27-10.547 21.271-17.879 32.396-24.962 15.302-9.743 16.677-12.449 16.59-30.175-.067-13.882-5.721-13.802-17.954-16.646-10.071-2.341-23.827-14.472-26.872-24.739zm-52.919-60.283c-5.488-9.438-4.516-23.028-12.189-31.145-6.511-6.886-20.202-3.505-28.519-3.559-12.124-.078-15.576-.847-11.698 11.164 2.608 8.08 7.473 17.705 8.304 26.125 1.022 10.356 2.024 26.087 1.006 36.422 5.966 9.007 17.521.827 25.097-.546 8.711-1.576 19.147-3.931 25.185-11.424 2.582-3.206 3.877-7.898 3.889-11.965.036-11.457-6.67-7.503-11.075-15.072-4.743-8.158 1.82 3.129 0 0zm171.304 26.459c-4.438 1.708-6.68 12.707-8.08 16.558-3.408 9.377-8.544 18.542-14.332 26.65-5.708 7.996-14.216 14.694-23.672 17.639-10.338 3.22-15.414 1.488-15.04 14.08.716 24.12 23.787 14.327 34.119 33.364 6.222 11.524 11.583 22.554 12.708 35.781.396 4.67 5.224 20.747 10.204 22.866 7.065-11.009-7.378-28.348.102-39.424 2.459-3.643-1.764-8.854.42-13.53 4.154-8.894 2.48-22.028 2.354-31.564-.066-5.034 3.577-82.42 1.217-82.42zm-292.416 79.65c-.281 10.704 13.187 10.98 20.758 11.269 12.578.479 14.134-7.141 16.612-17.816 2.75-11.808-14.682-9.153-21.57-9.597-12.123-.78-15.484 4.183-15.8 16.144zm-129.022 16.093c-2.943 26.981 62.394 34.062 75.336 15.13 9.113-13.329-18.303-28.729-27.219-30.967-12.595-3.162-46.148-2.294-48.117 15.837-.804 7.376.898-8.265 0 0zm-38.189 19.368c5.477 22.198.093 46.814-.381 69.345-.507 24.107.834 48.174.206 72.326-.315 12.115 1.812 23.199 2.761 35.141.868 10.916-1.558 21.766-.947 32.682 1.085 19.319-6.706 45.444 6.257 62.076 6.922 8.883 38.238 15.006 48.023 8.025 14.364.918 16.459-.96 27.551-8.729 9.099-6.393 17.297-10.893 23.425-20.397 10.129-15.711 7.748-32.176-3.852-47.518-5.317-7.035-10.72-11.068-18.462-15.029-8.868-4.537-7.104 4.794-8.191 10.367-3.466 17.771-21.482 26.734-34.373 36.089-6.593 4.784-19.59 1.848-10.797-6.94 5.319-5.318 12.34-7.769 18.285-12.097 10.654-7.755 20.248-30.747 13.275-43.003-4.624-8.129-15.373-12.781-21.211-20.301-7.327-9.438-9.98-20.949-10.255-32.697-.423-18.088 7.283-32.903 22.692-43.508 7.546-5.184 11.771-5.102 12.268-15.642.276-5.883 1.923-20.271-5.267-22.656-13.64-4.524-26.685-1.277-38.554-11.308-6.085-5.143-10.604-12.522-13.086-20.054-1.169-3.549-12.04-17.044-9.367-6.172zm408.344 283.685c13.196 1.586 25.532 6.898 37.194-2.754 11.621-9.618 9.684-21.053 7.908-34.24-1.896-14.087.692-28.708 1.085-42.863.154-5.652-3.345-9.414-2.634-15.422.814-6.873 1.749-15.023.975-22.215-2.877-26.707-4.494-53.285-5.914-80.182-.702-13.297-7.609-23.678-9.427-36.364-2.196-15.402-4.366-28.314-14.123-41.126-3.17-4.163-18.372-19.996-22.77-9.398-4.142 9.984-.06 23.454.156 33.812.69 33.299 2.11 67.174 1.409 100.434-.305 14.469-.669 28.951-.485 43.422.169 13.345-2.938 25.797-.164 39.068 2.831 13.551 2.843 24.439 1.444 38.125-.892 8.745-5.506 28.42 5.346 29.703zm-33.277-276.32c-10.286-1.127-18.721 12.839-24.823 19.093-7.643 7.834-8.997 18.531-8.991 30.125.009 16.603-6.745 34.154-3.425 50.57 2.863 14.155 1.24 28.809.169 43.219-.894 12.014-2.914 20.935-5.173 32.423-2.616 13.3.26 26.805-1.328 40.163-1.657 13.925-1.773 26.41-2.655 40.479-.963 15.346.309 13.226 11.707 18.781 10.382 5.059 25.57 2.288 36.668 2.939 8.022.475 6.644-20.099 7.095-25.108 2.896-32.087-.642-63.837 1.614-95.89.441-6.265 1.744-12.444 1.746-18.746.001-7.834-5.843-12.729-4.622-21.047 2.518-17.143 2.869-34.742 3.715-52.062.813-16.647-1.02-33.297-.47-49.957.308-9.337-.503-21.818-11.227-14.982-1.226-.134 2.165-1.381 0 0zm-244.135 202.671c13.47-8.924 23.226-34.185 19.432-50.119-1.927-8.09-2.062-19.975-1.927-28.307.013-3.24.6-6.369 1.761-9.385 2.594-5.52-1.982-10.357-1.537-15.846 1.431-17.233-.776-35.096 1.473-51.893.759-5.665 6.545-37.5-.134-41.477 4.66 2.774-29.466 21.881-32.434 22.993-13.545 5.068-36.567-6.063-35.027 16.099.67 9.633-3.136 19.834-3.045 29.727.083 8.987 2.458 17.711 2 26.762-1.032 20.4-16.113 16.461-14.619-1.801 1.146-14.01-.527-28.688-14.436-11.891-10.271 12.406-7.424 32.139-.094 44.266 12.658 20.938 27.921 27.408 48.85 38.895 8.282 4.545 14.306 10.084 17.439 19.186 1.497 4.347 5.07 17.569 12.298 12.791zm38.461-191.487c-12.625 3.702 6.704 28.892 16.641 13.094 8.898-14.19-2.724-17.211-16.641-13.094-5.122 1.502 5.47-1.618 0 0zm126.295 78.286c-5.978 2.623-17.735-1.258-19.061 7.738-1.211 8.217-.077 18.58 5.359 25.123 7.096 8.539 18.94 10.465 26.104 18.682 7.376 8.458 7.065 24.08 2.525 33.699-4.292 9.092-16.79 13.771-26.245 11.395-15.238-3.83-13.415 1.339-20.068 13.953-6.31 11.963-13.025 14.782-7.734 29.531 3.399 9.481 9.957 19.126 17.299 26 12.417 11.644 43.227 33.584 42.525 1.759-.617-28.118.253-56.601 3.781-84.491 3.314-26.188 2.392-51.271.909-77.38-.307-5.399-.218-23.263-10.973-18.981-5.909 2.353-9.004 9.614-14.421 12.972zm-110.474-12.821c-13.822-8.319-32.116 5.551-19.077 19.033 8.408 8.694 29.818-12.566 19.077-19.033zm91.108 58.921c-9.866-6.544-9.041-15.79-11.404-26.337-3.022-13.495-4.377-12.998-17.222-12.805-25 .378 1.826 35.256-21.319 43.44-10.185 3.603-18.58 3.445-23.618 14.816-3.127 7.057-5.393 20.203 2.92 24.841 24.993 13.946 24.367-30.354 34.265-25.456 4.932 2.441 2.947 49.299 10.354 43.025 11.617-9.84 5.197-28.321 11.769-40.19 4.354-7.868 11.153-1.302 12.107 4.056 1.519 8.519 10.489 14.328 19.179 14.209 11.749-.162 12.258-12.435 7.869-20.213-5.172-9.17-16.464-13.791-24.9-19.386zm-213.857-271.413c0 8.758-.357 22.89-10.834 25.896-9.417 2.702-6.272-12.176-5.994-16.914.72-12.198 2.388-28.58-.628-40.512-3.566-14.115-10.427-2.147-10.057 5.67.729 15.368 6.386 37.83-.727 52.238-4.333 8.777-11.448-2.671-12.625-7.359-2.146-8.544-1.095-17.372-2.295-26.033-1.354-9.755-7.1-12.078-9.517-.151-2.113 10.429.767 27.861 6.009 37.25 5.809 10.4 20.752 7.934 20.804 21.877.016 4.224-3.118 22.023 3.884 23.354 9.05 1.72 5.663-18.323 5.294-22.975-1.207-15.253 5.866-9.443 14.359-18.106 8.627-8.802 12.97-22.893 12.419-35.055-.702-15.306-10.092-13.32-10.092.82zm77.469 31.37c2.521-6.341 15.044-49.798 3.098-52.059-9.214-1.744-3.743 41.11-14.944 48.166-11.04 6.955-1.715-69.692-16.771-65.787-8.021 2.079 2.795 54.076 2.451 61.375-.683 14.444-14.167-2.764-16.584-6.938-5.623-9.71 4.456-26.225-4.985-33.858-13 .854-8.826 33.069-4.417 40.289 2.756 4.513 4.115 10.053 7.936 14.246 3.624 3.976 16.06 3.372 17.125 8.958 1.316 6.886-1.331 14.007.217 20.945 1.602 7.188 10.925 8.448 11.757.287.698-6.846-3.007-14.742-.605-21.351 2.63-7.241 12.74-6.769 15.722-14.273zm-46.918 74.195c-7.73 5.045-23.322.113-31.914 1.09-10.684 1.216-26.341 8.415-6.547 10.093 10.889.921 34.409 10.006 43.992.997 9.955-9.358-7.691-11.575-5.531-12.18z"/></svg>