<?xml version="1.0" standalone="no"?><!DOCTYPE svg PUBLIC "-//W3C//DTD SVG 1.1//EN" "http://www.w3.org/Graphics/SVG/1.1/DTD/svg11.dtd"><svg width="100%" height="100%" viewBox="0 0 512 512" version="1.1" xmlns="http://www.w3.org/2000/svg" xmlns:xlink="http://www.w3.org/1999/xlink" xml:space="preserve" style="fill-rule:evenodd;clip-rule:evenodd;stroke-linejoin:round;stroke-miterlimit:1.41421;"><path id="Rakkan" d="M160,0l352,0l0,512l-32,0l-480,0l0,-512l160,0ZM448,192l0,288l32,0l0,-288l-32,0ZM384,192l0,288l32,0l0,-288l-32,0ZM160,416l24,0l0,-352l40,0l0,-32l-64,0l0,160l-32,0l0,32l32,0l0,32l-32,0l0,96l32,0l0,64ZM288,384l0,32l32,0l0,-32l-32,0ZM128,387.944l-32,0l0,-35.944l-64,0l0,128l32,0l0,-32l32,0l0,-32l32,0l0,-28.056ZM32,320l64,0l0,-64l-32,0l0,-32l32,0l0,-32l-32,0l0,-160l-32,0l0,160l24,0l0,32l-24,0l0,96ZM344,288l-80,0l0,32l80,0l0,-32ZM128,448l0,32l160,0l0,-32l-24,0l0,-96l80,0l0,96l-24,0l0,32l32,0l0,-320l64,0l0,-32l-64,0l0,-96l-32,0l0,64l24,0l0,32l-24,0l0,32l24,0l0,32l-24,0l0,32l24,0l0,32l-80,0l0,-32l24,0l0,-32l-24,0l0,-32l24,0l0,-32l-24,0l0,-32l24,0l0,-64l-32,0l0,64l-40,0l0,32l40,0l0,32l-40,0l0,32l40,0l0,32l-40,0l0,32l40,0l0,32l-40,0l0,160l-88,0ZM448,160l32,0l0,-32l-32,0l0,32ZM96,160l32,0l0,-64l-32,0l0,64ZM384,32l0,64l32,0l0,-64l-32,0ZM448,96l32,0l0,-64l-32,0l0,64ZM96,64l32,0l0,-32l-32,0l0,32Z" style="fill:#000;"/></svg>